Motion_sv07_l
version=1
nRows=9
nColumns=43
inDegrees=yes
endheader
time	pelvis_tilt	pelvis_list	pelvis_rotation	pelvis_tx	pelvis_ty	pelvis_tz	hip_flexion_r	hip_adduction_r	hip_rotation_r	knee_angle_r	ankle_angle_r	subtalar_angle_r	mtp_angle_r	hip_flexion_l	hip_adduction_l	hip_rotation_l	knee_angle_l	ankle_angle_l	subtalar_angle_l	mtp_angle_l	lumbar_extension	lumbar_bending	lumbar_rotation	neck_flexion	neck_lateral_bending	neck_rotation	arm_flex_r	arm_add_r	arm_rot_r	elbow_flex_r	pro_sup_r	wrist_flex_r	wrist_dev_r	hand_finger_flex_r	arm_flex_l	arm_add_l	arm_rot_l	elbow_flex_l	pro_sup_l	wrist_flex_l	wrist_dev_l	hand_finger_flex_l
      0.96000000	     -2.52977659	     19.24356268	     94.84439681	      0.09607188	      0.86764156	      0.49947952	     23.50565908	     -4.09898313	     -7.80374833	    -61.90266753	     15.26870701	     -1.55581838	      4.59374165	     42.03733326	    -12.49015115	     12.57235497	    -81.19431109	      2.63393891	      6.99558386	      7.41934053	    -37.66830573	     13.21462435	    -16.20079045	    -21.94482880	    -11.13923651	      7.10270961	    -42.58159848	    -24.43422763	     14.70370063	     61.58279239	    138.50153427	     57.95571028	      7.08908601	     -0.83137216	    -30.15776586	    -17.07032288	    -18.22549075	    133.27354994	    114.27545101	    -32.88396681	    -16.84359105	     21.30290301
      0.96250000	     -2.31244116	     19.11747078	     94.79564675	      0.09572238	      0.86601227	      0.49819811	     23.87879246	     -3.98069067	     -7.92893081	    -62.44454105	     15.41300624	     -1.59366806	      4.63772085	     41.73746746	    -12.33233884	     12.64872964	    -80.28279438	      2.68605825	      7.00339935	      7.50467734	    -37.88732111	     13.38191828	    -16.14481864	    -21.69799026	    -11.13237806	      7.23099276	    -41.66755051	    -24.58839639	     14.34185918	     61.70305664	    138.31957130	     58.06405713	      6.98573743	     -0.71443494	    -29.90232702	    -16.52084271	    -18.04939159	    132.18924709	    114.15683640	    -32.86376313	    -16.58765345	     21.32857557
      0.96500000	     -2.08209293	     18.98321970	     94.71518923	      0.09524030	      0.86448509	      0.49689478	     24.20843100	     -3.85016172	     -8.03891586	    -62.88849002	     15.52859081	     -1.59947171	      4.68110469	     41.43394216	    -12.20657538	     12.68853188	    -79.37748854	      2.79204950	      6.98083651	      7.61072505	    -38.09670954	     13.56551679	    -16.02757510	    -21.43569869	    -11.10991416	      7.40422791	    -40.77124304	    -24.76006264	     13.97891090	     61.83614615	    138.10760486	     58.24037811	      6.88117657	     -0.55521134	    -29.60773432	    -16.00317365	    -17.82112326	    131.06762137	    114.00832280	    -32.86034229	    -16.37754736	     21.34793586
      0.96750000	     -1.70034045	     18.98929571	     94.41895275	      0.09500231	      0.86325090	      0.49533010	     24.36770132	     -3.51495562	     -8.07807259	    -63.27278988	     15.49221417	     -1.44443831	      4.81141905	     40.95198127	    -12.36234975	     12.65819619	    -78.51429188	      3.06825140	      6.74691189	      8.15466273	    -38.44596675	     13.80190864	    -15.60102985	    -21.28300430	    -11.09455255	      7.78152128	    -39.99224466	    -24.92203148	     13.49111783	     62.00481334	    137.73426830	     58.59171441	      6.71003292	      0.07990066	    -29.26424722	    -15.63528523	    -17.37754148	    129.77389406	    113.44552559	    -33.20311343	    -16.62107880	     21.42849336
      0.97000000	     -1.49109615	     18.83689703	     94.34099973	      0.09449921	      0.86181362	      0.49418939	     24.68337773	     -3.39462593	     -8.17162393	    -63.64073000	     15.68451042	     -1.48114984	      4.86506632	     40.69794055	    -12.25869560	     12.66138701	    -77.62879477	      3.12289333	      6.75581563	      8.25474011	    -38.65612421	     13.96645106	    -15.47767297	    -20.94115066	    -11.05667308	      7.79287618	    -39.02852700	    -25.11820538	     13.23150164	     62.10255667	    137.54463130	     58.60578270	      6.58231672	      0.19181009	    -28.95042738	    -15.16523067	    -17.19223677	    128.70079061	    113.24012035	    -33.22325849	    -16.44861162	     21.43987928
      0.97250000	     -1.25998920	     18.70192837	     94.21685272	      0.09403583	      0.86042178	      0.49297993	     24.99367905	     -3.25792398	     -8.26794901	    -64.03644545	     15.82374933	     -1.45375317	      4.91349737	     40.41719663	    -12.20696762	     12.66106014	    -76.77877615	      3.26864026	      6.69359263	      8.35941265	    -38.87164760	     14.12954086	    -15.28348159	    -20.65109288	    -11.06442319	      7.85001221	    -38.08392281	    -25.32616095	     12.97796207	     62.16741621	    137.18515027	     58.70414114	      6.34782311	      0.33907166	    -28.62084841	    -14.75399414	    -16.98456005	    127.61779801	    112.98059858	    -33.26099631	    -16.31302763	     21.43725934
      0.97500000	     -0.87608268	     18.66975107	     93.83658752	      0.09382739	      0.85931586	      0.49143715	     25.15641301	     -2.87266547	     -8.19242484	    -64.33775497	     15.85082236	     -1.18644750	      5.02603986	     39.95994191	    -12.46868450	     12.50147830	    -75.94961041	      3.63542736	      6.38222052	      8.73251324	    -39.18684621	     14.31403995	    -14.81881264	    -20.58028859	    -11.12176153	      7.92616960	    -37.17688673	    -25.64890385	     12.83172395	     62.21495479	    136.28702067	     58.79390665	      5.94226024	      0.82743308	    -28.35054283	    -14.46418192	    -16.56658305	    126.42383146	    112.05059826	    -33.62123740	    -16.68423543	     21.41943826
      0.97750000	     -0.60699659	     18.59574947	     93.58269421	      0.09359358	      0.85820723	      0.49012890	     25.33257819	     -2.62731240	     -8.16418519	    -64.60865139	     16.02552343	     -1.12174819	      5.15483205	     39.58795394	    -12.57135282	     12.40361689	    -75.12475022	      3.81808053	      6.30138206	      9.08152899	    -39.47223160	     14.44377933	    -14.49870986	    -20.31321982	    -11.18759309	      7.92187823	    -36.18829048	    -25.91412541	     12.75975153	     62.18592438	    135.47190499	     58.63138440	      5.81977798	      1.30011409	    -28.02888822	    -14.15913483	    -16.24850675	    125.23171522	    111.03967188	    -33.88190980	    -17.06437118	     21.45857864
      0.98000000	     -0.41968169	     18.43525724	     93.51080066	      0.09329834	      0.85684664	      0.48892377	     25.60043641	     -2.52522758	     -8.27890122	    -64.91152000	     16.22498100	     -1.13083237	      5.20299972	     39.38729840	    -12.49832036	     12.43464352	    -74.37676271	      3.93340996	      6.28602607	      9.14505458	    -39.62521450	     14.56162935	    -14.34115976	    -19.99959169	    -11.13128857	      7.91085231	    -35.18849920	    -26.08909082	     12.64059980	     62.16227214	    135.19274532	     58.62057986	      5.74198844	      1.40654739	    -27.73180087	    -13.90133660	    -16.10828838	    124.19939287	    110.77125229	    -33.85539491	    -16.91404899	     21.47237528
